<svg height="512" viewBox="0 0 64 64" width="512" xmlns="http://www.w3.org/2000/svg" xmlns:xlink="http://www.w3.org/1999/xlink"><linearGradient y2="0" x2="0.5" y1="1" x1="0.5" id="svg_18"><stop offset="0" stop-opacity="1" stop-color="#ff2c9a"/><stop offset="1" stop-opacity="1" stop-color="#0070ff"/></linearGradient><g id="Layer_31" data-name="Layer 31"><path d="m27.445 23.832a1 1 0 0 0 1.387-.277l8-12a1 1 0 1 0 -1.664-1.11l-8 12a1 1 0 0 0 .277 1.387z" fill="url(#svg_18)"/><path d="m28 17a3 3 0 1 0 -3-3 3 3 0 0 0 3 3zm0-4a1 1 0 1 1 -1 1 1 1 0 0 1 1-1z" fill="url(#svg_18-2)"/><path d="m33 20a3 3 0 1 0 3-3 3 3 0 0 0 -3 3zm4 0a1 1 0 1 1 -1-1 1 1 0 0 1 1 1z" fill="url(#svg_18-3)"/><g fill="url(#svg_18)"><path d="m32 28a11 11 0 1 0 -11-11 11.013 11.013 0 0 0 11 11zm0-20a9 9 0 1 1 -9 9 9.011 9.011 0 0 1 9-9z"/><path d="m59 26h-3.76l5.61-5.61a2.994 2.994 0 0 0 0-4.24 3.075 3.075 0 0 0 -4.24 0l-9.85 9.85h-2.79a15 15 0 1 0 -23.94 0h-2.79l-9.85-9.85a3.075 3.075 0 0 0 -4.24 0 2.994 2.994 0 0 0 0 4.24l5.61 5.61h-3.76a3.009 3.009 0 0 0 -3 3v4a3.009 3.009 0 0 0 3 3h.13l3.09 20.07a6.97 6.97 0 0 0 6.93 5.94h33.7a6.97 6.97 0 0 0 6.93-5.94l3.09-20.07h.13a3.009 3.009 0 0 0 3-3v-4a3.009 3.009 0 0 0 -3-3zm-12.29 2.88 11.31-11.32a1.033 1.033 0 0 1 .71-.29 1.007 1.007 0 0 1 1 1 1.033 1.033 0 0 1 -.29.71l-11.32 11.31a1 1 0 1 1 -1.41-1.41zm-27.71-11.88a13 13 0 1 1 13 13 13.012 13.012 0 0 1 -13-13zm-14.44 1.98a1.033 1.033 0 0 1 -.29-.71 1.007 1.007 0 0 1 1-1 1.033 1.033 0 0 1 .71.29l11.31 11.32a1 1 0 1 1 -1.41 1.41zm49.22 36.78a4.957 4.957 0 0 1 -4.93 4.23h-33.7a4.957 4.957 0 0 1 -4.93-4.23l-3.04-19.75h49.64zm6.22-22.76a1 1 0 0 1 -1 1h-.96c-.01 0-.02-.01-.04-.01h-52c-.02 0-.03.01-.04.01h-.96a1 1 0 0 1 -1-1v-4a1 1 0 0 1 1-1h5.76l3.7 3.71a3 3 0 0 0 4.67-3.71h2.71a14.9 14.9 0 0 0 20.32 0h2.71a3 3 0 0 0 4.67 3.71l3.7-3.71h5.76a1 1 0 0 1 1 1z"/><path d="m32 58a3 3 0 0 0 3-3v-14a3 3 0 0 0 -6 0v14a3 3 0 0 0 3 3zm-1-17a1 1 0 0 1 2 0v14a1 1 0 0 1 -2 0z"/></g><path d="m24 58a3 3 0 0 0 3-3v-14a3 3 0 0 0 -6 0v14a3 3 0 0 0 3 3zm-1-17a1 1 0 0 1 2 0v14a1 1 0 0 1 -2 0z" fill="url(#svg_18-7)"/><path d="m16 58a3 3 0 0 0 3-3v-14a3 3 0 0 0 -6 0v14a3 3 0 0 0 3 3zm-1-17a1 1 0 0 1 2 0v14a1 1 0 0 1 -2 0z" fill="url(#svg_18-8)"/><path d="m48 58a3 3 0 0 0 3-3v-14a3 3 0 0 0 -6 0v14a3 3 0 0 0 3 3zm-1-17a1 1 0 0 1 2 0v14a1 1 0 0 1 -2 0z" fill="url(#svg_18-9)"/><path d="m40 58a3 3 0 0 0 3-3v-14a3 3 0 0 0 -6 0v14a3 3 0 0 0 3 3zm-1-17a1 1 0 0 1 2 0v14a1 1 0 0 1 -2 0z" fill="url(#svg_18-10)"/></g></svg>