<?xml version="1.0" encoding="iso-8859-1"?>
<!-- Generator: Adobe Illustrator 19.0.0, SVG Export Plug-In . SVG Version: 6.00 Build 0)  -->
<svg version="1.1" id="Capa_1" xmlns="http://www.w3.org/2000/svg" xmlns:xlink="http://www.w3.org/1999/xlink" x="0px" y="0px"
	 viewBox="0 0 512.001 512.001" style="enable-background:new 0 0 512.001 512.001;" xml:space="preserve">
<linearGradient y2="0" x2="0.5" y1="1" x1="0.5" id="svg_18"><stop offset="0" stop-opacity="1" stop-color="#ff2c9a"/><stop offset="1" stop-opacity="1" stop-color="#0070ff"/></linearGradient>
<path style="fill:url(#svg_18);" d="M284.286,256.002L506.143,34.144c7.811-7.811,7.811-20.475,0-28.285s-20.475-7.811-28.285,0
	L256,227.717L34.143,5.859c-7.811-7.811-20.475-7.811-28.285,0s-7.811,20.475,0,28.285l221.857,221.857L5.858,477.859
	c-7.811,7.811-7.811,20.475,0,28.285c3.905,3.905,9.024,5.857,14.143,5.857s10.237-1.952,14.143-5.857L256,284.287l221.857,221.857
	c3.905,3.905,9.024,5.857,14.143,5.857s10.237-1.952,14.143-5.857c7.811-7.811,7.811-20.475,0-28.285L284.286,256.002z"/>
<g>
</g>
<g>
</g>
<g>
</g>
<g>
</g>
<g>
</g>
<g>
</g>
<g>
</g>
<g>
</g>
<g>
</g>
<g>
</g>
<g>
</g>
<g>
</g>
<g>
</g>
<g>
</g>
<g>
</g>
</svg>
