<svg height="512pt" viewBox="0 0 512.00026 512" width="512pt" xmlns="http://www.w3.org/2000/svg" xmlns:xlink="http://www.w3.org/1999/xlink"><linearGradient y2="0" x2="0.5" y1="1" x1="0.5" id="svg_18"><stop offset="0" stop-opacity="1" stop-color="#ff2c9a"/><stop offset="1" stop-opacity="1" stop-color="#0070ff"/></linearGradient><path d="m208.613281 384.855469-85.332031-42.664063c-2.402344-1.203125-5.226562-1.203125-7.628906 0l-85.332032 42.664063c-2.894531 1.449219-4.722656 4.40625-4.71875 7.640625v110.933594c0 4.710937 3.820313 8.53125 8.53125 8.53125h170.667969c4.714844 0 8.535157-3.820313 8.535157-8.53125v-110.933594c0-3.234375-1.828126-6.191406-4.722657-7.640625zm-106.214843 110.039062v-42.667969h34.132812v42.667969zm93.867187 0h-42.664063v-51.199219c0-4.714843-3.820312-8.535156-8.535156-8.535156h-51.199218c-4.714844 0-8.535157 3.820313-8.535157 8.535156v51.199219h-42.664062v-97.125l76.800781-38.402343 76.796875 38.402343zm0 0" fill="url(#svg_18)"/><path d="m233.976562 316.480469-110.933593-51.203125c-2.269531-1.046875-4.882813-1.046875-7.152344 0l-110.933594 51.203125c-3.023437 1.394531-4.957031 4.417969-4.957031 7.746093v42.667969c0 4.710938 3.820312 8.53125 8.535156 8.53125 1.234375 0 2.453125-.265625 3.574219-.785156l107.359375-49.558594 107.359375 49.542969c4.277344 1.976562 9.347656.105469 11.320313-4.171875.515624-1.117187.785156-2.332031.785156-3.558594v-42.667969c0-3.328124-1.933594-6.351562-4.957032-7.746093zm-12.109374 37.085937-98.824219-45.621094c-2.269531-1.046874-4.882813-1.046874-7.152344 0l-98.824219 45.621094v-23.894531l102.398438-47.257813 102.402344 47.273438zm0 0" fill="url(#svg_18)"/><path d="m507.15625 239.746094-188.433594-90.136719 17.78125-35.566406 9.730469 4.574219c4.261719 2.003906 9.347656.171874 11.351563-4.089844.027343-.058594.054687-.117188.082031-.179688l15.539062-35.085937c1.882813-4.246094.03125-9.214844-4.171875-11.1875l-143.542968-67.261719c-4.191407-1.972656-9.191407-.238281-11.261719 3.910156l-17.066407 34.132813c-2.109374 4.214843-.398437 9.339843 3.816407 11.445312.0625.03125.125.0625.183593.089844l9.15625 4.265625-60.457031 113.410156-9.335937-4.941406c-4.164063-2.207031-9.328125-.617188-11.535156 3.546875-.03125.058594-.066407.121094-.09375.183594l-17.070313 34.132812c-2.070313 4.144531-.453125 9.191407 3.644531 11.355469l145.066406 76.800781c4.164063 2.207031 9.328126.621094 11.535157-3.542969.03125-.0625.066406-.121093.097656-.183593l17.066406-34.132813c2.070313-4.148437.453125-9.191406-3.644531-11.359375l-9.496094-5.027343 14.503906-28.960938 192.113282 91.835938c1.148437.554687 2.410156.847656 3.683594.855468 1.0625 0 2.113281-.195312 3.101562-.582031 2.203125-.859375 3.949219-2.589844 4.828125-4.785156l17.066406-42.667969c1.65625-4.167969-.195312-8.90625-4.238281-10.847656zm-281.378906-219.996094 128.449218 60.234375-8.625 19.464844-7.320312-3.414063c-.5625-.558594-1.207031-1.027344-1.90625-1.398437l-55.464844-25.601563-64.5625-30.410156zm35.027344 250.1875-129.980469-68.820312 9.441406-18.867188 64.492187 34.132812 55.734376 30.011719c.785156.417969 1.636718.707031 2.515624.855469l7.238282 3.828125zm-47.855469-68.503906-47.785157-25.753906 60.441407-113.425782 47.597656 21.964844 47.855469 22.519531-60.058594 120.132813zm268.910156 77.03125-183.652344-87.835938 12.875-25.753906 181.496094 86.820312zm0 0" fill="url(#svg_18)"/></svg>