<svg width="100" height="100" xmlns="http://www.w3.org/2000/svg" version="1.1" xml:space="preserve">
    <g id="Layer_1">
        <title>Layer 1</title>
        <path stroke="url(#svg_8)" id="svg_9" d="m49.83454,12.29016c4.1048,0.00497 8.0262,0.68623 11.73994,1.82434l-2.93916,4.87255l20.86327,0l-5.21715,-8.66062l-5.21317,-8.65803l-2.74425,4.56223c-5.14317,-1.80237 -10.6877,-2.81108 -16.48574,-2.81108c-26.68795,0 -48.31937,20.7356 -48.31937,46.31662c0,10.61696 3.76722,20.37163 10.0367,28.1871l7.34721,-5.40722c-5.07058,-6.31598 -8.11929,-14.19744 -8.13583,-22.77733c0.03693,-20.68192 17.49345,-37.41685 39.06755,-37.44856l0,0zm38.28776,9.26867l-7.34719,5.40981c5.0693,6.31357 8.11803,14.19006 8.13198,22.77251c-0.03693,20.68175 -17.49345,37.41428 -39.0688,37.44836c-3.82328,-0.00474 -7.48098,-0.60063 -10.96794,-1.59717l2.76585,-4.58434l-20.86318,0l5.21329,8.65583l5.21705,8.66777l2.90859,-4.83821c4.93294,1.64605 10.21241,2.56438 15.72634,2.56677c26.6918,-0.00477 48.31951,-20.74039 48.32578,-46.32143c-0.00627,-10.61694 -3.77617,-20.36923 -10.04176,-28.17989l0,0z" fill-opacity="0" stroke-width="2" fill="#ff2c9a"/>
    </g>
    <defs>
        <linearGradient y2="0.5" x2="1" y1="0.5" x1="0" id="svg_8">
            <stop offset="0" stop-opacity="1" stop-color="#ff2c9a"/>
            <stop offset="1" stop-opacity="1" stop-color="#0070ff"/>
        </linearGradient>
    </defs>
</svg>