<svg id="Layer_5" enable-background="new 0 0 64 64" height="512" viewBox="0 0 64 64" width="512" xmlns="http://www.w3.org/2000/svg" xmlns:xlink="http://www.w3.org/1999/xlink"><linearGradient y2="0" x2="0.5" y1="1" x1="0.5" id="svg_18"><stop offset="0" stop-opacity="1" stop-color="#ff2c9a"/><stop offset="1" stop-opacity="1" stop-color="#0070ff"/></linearGradient><path d="m9.465 53.121 1.414 1.414-1.414 1.414-1.414-1.414zm1.414-1.414 1.414 1.414 1.414-1.414-1.414-1.414zm-5.586 5.586 1.414 1.414 1.343-1.343-1.414-1.414zm4.707-56.293h53v46h-25.333c-2.661 4.199-7.338 7-12.667 7-2.705 0-5.238-.73-7.431-1.987l-7.952 9.276c-.93 1.087-2.286 1.711-3.719 1.711-2.701 0-4.898-2.197-4.898-4.898 0-1.433.624-2.788 1.711-3.72l9.276-7.951c-1.257-2.194-1.987-4.726-1.987-7.431zm5.896 49.894c-1.048-.804-1.985-1.741-2.789-2.789l-9.095 7.795c-.643.552-1.012 1.354-1.012 2.202 0 1.598 1.3 2.898 2.898 2.898.848 0 1.649-.369 2.2-1.012zm22.104-11.894c0-7.168-5.832-13-13-13s-13 5.832-13 13 5.832 13 13 13 13-5.832 13-13zm23 6v-34h-49v20.548c2.591-4.503 7.442-7.548 13-7.548 8.271 0 15 6.729 15 15 0 2.134-.455 4.161-1.261 6zm-49-42v6h49v-6zm4 2h-2v2h2zm4 0h-2v2h2zm4 0h-2v2h2zm19 26h16v12h-16zm6 4h4v-2h-4zm-4 6h12v-8h-2v4h-8v-4h-2zm-2-24h16v12h-16zm6 4h4v-2h-4zm-4 6h12v-8h-2v4h-8v-4h-2zm-25 12h-2c0 3.859 3.141 7 7 7v-2c-2.757 0-5-2.243-5-5zm37-24h2v-2h-2zm-2-2h-2v2h2zm-4 0h-2v2h2zm-15 26c0 6.065-4.935 11-11 11s-11-4.935-11-11 4.935-11 11-11 11 4.935 11 11zm-2 0c0-4.963-4.037-9-9-9s-9 4.037-9 9 4.037 9 9 9 9-4.037 9-9zm-20-24h10v-2h-10zm0 4h10v-2h-10zm12-4h10v-2h-10zm0 4h10v-2h-10z" fill="url(#svg_18)"/></svg>