<svg id="Layer_5" enable-background="new 0 0 62 62" height="512" viewBox="0 0 62 62" width="512" xmlns="http://www.w3.org/2000/svg" xmlns:xlink="http://www.w3.org/1999/xlink"><linearGradient y2="0" x2="0.5" y1="1" x1="0.5" id="svg_18"><stop offset="0" stop-opacity="1" stop-color="#ff2c9a"/><stop offset="1" stop-opacity="1" stop-color="#0070ff"/></linearGradient><path d="m5 16h6c1.302 0 2.402-.839 2.816-2h2.184v25c0 1.448.442 2.794 1.197 3.911l-2.227 5.09c-3.845.017-6.97 3.149-6.97 6.999 0 3.86 3.141 7 7 7s7-3.14 7-7c0-1.544-.505-3.021-1.429-4.233l2.724-4.767h28.705v2.695c-2.414 1.15-4 3.59-4 6.305 0 3.86 3.141 7 7 7s7-3.14 7-7c0-2.716-1.586-5.155-4-6.305v-2.695h1c.881 0 1.715-.386 2.287-1.06.571-.673.816-1.562.672-2.44-.234-1.425-1.555-2.5-3.071-2.5h-35.888c-.552 0-1-.449-1-1v-1h28.219c2.098 0 3.917-1.421 4.426-3.455l3.22-12.878c.089-.362.135-.734.135-1.105 0-2.323-1.751-4.224-4-4.505v-8.057h-10v-8h-20v16h-2v-3c0-2.757-2.243-5-5-5h-3.184c-.414-1.161-1.514-2-2.816-2h-6c-2.757 0-5 2.243-5 5s2.243 5 5 5zm12.079 36.846c-.451-.436-1.04-.721-1.692-.807l3.298-7.539c.719.565 1.55.991 2.455 1.241zm-2.079 1.154c.552 0 1 .449 1 1s-.448 1-1 1-1-.449-1-1 .448-1 1-1zm5 1c0 2.757-2.243 5-5 5s-5-2.243-5-5c0-2.433 1.749-4.46 4.054-4.904l-1.267 2.895c-.484.533-.787 1.234-.787 2.009 0 1.654 1.346 3 3 3 1.544 0 2.804-1.177 2.967-2.678l1.472-2.577c.354.695.561 1.458.561 2.255zm40 0c0 2.757-2.243 5-5 5s-5-2.243-5-5c0-1.599.766-3.069 2-3.998v3.998c0 1.654 1.346 3 3 3s3-1.346 3-3v-3.998c1.234.929 2 2.399 2 3.998zm-6 0c0-.551.448-1 1-1s1 .449 1 1-.448 1-1 1-1-.449-1-1zm2-2.816c-.314-.112-.648-.184-1-.184s-.686.072-1 .184v-6.184h2zm-26-16.184h-2v-5c0-.551.448-1 1-1s1 .449 1 1zm8 0h-2v-9c0-.551.448-1 1-1s1 .449 1 1zm8 0h-2v-5c0-.551.448-1 1-1s1 .449 1 1zm6.705-1.94c-.286 1.142-1.309 1.94-2.486 1.94h-2.219v-5c0-1.654-1.346-3-3-3s-3 1.346-3 3v5h-2v-9c0-1.654-1.346-3-3-3s-3 1.346-3 3v9h-2v-5c0-1.654-1.346-3-3-3s-3 1.346-3 3v5h-4v-14h33.72zm-12.705-20.06h4v2h-4zm0-2v-2h4v2zm6 2h6v2h-6zm6-2h-6v-2h6zm-14-4v8h-6v-10h10v2zm4-4h-10v-2h10zm-12-2v2h-4v-2zm-4 4h4v10h-4zm27.438 12c1.219 0 2.238.857 2.495 2h-33.933v-2zm-33.438-5v26c0 1.654 1.346 3 3 3h35.888c.54 0 1.022.362 1.098.824.05.302-.029.594-.223.821-.192.226-.47.355-.763.355h-36c-2.757 0-5-2.243-5-5v-25c0-1.103-.897-2-2-2h-2v-2h3c1.654 0 3 1.346 3 3zm-15-5h6c.552 0 1 .449 1 1v4c0 .551-.448 1-1 1h-6c-1.654 0-3-1.346-3-3s1.346-3 3-3zm5 27c0-.551-.448-1-1-1h-3c-1.654 0-3-1.346-3-3s1.346-3 3-3h5c.552 0 1-.449 1-1s-.448-1-1-1h-8c-1.654 0-3-1.346-3-3s1.346-3 3-3h8c.552 0 1-.449 1-1v-1h2v1c0 1.654-1.346 3-3 3h-8c-.552 0-1 .449-1 1s.448 1 1 1h8c1.654 0 3 1.346 3 3s-1.346 3-3 3h-5c-.552 0-1 .449-1 1s.448 1 1 1h3c1.654 0 3 1.346 3 3s-1.346 3-3 3h-6c-.552 0-1 .449-1 1s.448 1 1 1h11v2h-11c-1.654 0-3-1.346-3-3s1.346-3 3-3h6c.552 0 1-.449 1-1z" fill="url(#svg_18)"/></svg>