<svg width="512.001" height="512.001" xmlns="http://www.w3.org/2000/svg" xml:space="preserve" version="1.1">
 <defs>
  <linearGradient y2="0" x2="0.5" y1="1" x1="0.5" id="svg_18">
   <stop offset="0" stop-opacity="1" stop-color="#ff2c9a"/>
   <stop offset="1" stop-opacity="1" stop-color="#0070ff"/>
  </linearGradient>
 </defs>
 <g>
  <title>Layer 1</title>
  <path id="svg_1" fill="url(#svg_18)" d="m284.286,256.002l221.857,-221.858c7.811,-7.811 7.811,-20.475 0,-28.285s-20.475,-7.811 -28.285,0l-221.858,221.858l-221.857,-221.858c-7.811,-7.811 -20.475,-7.811 -28.285,0s-7.811,20.475 0,28.285l221.857,221.857l-221.857,221.858c-7.811,7.811 -7.811,20.475 0,28.285c3.905,3.905 9.024,5.857 14.143,5.857s10.237,-1.952 14.143,-5.857l221.856,-221.857l221.857,221.857c3.905,3.905 9.024,5.857 14.143,5.857s10.237,-1.952 14.143,-5.857c7.811,-7.811 7.811,-20.475 0,-28.285l-221.857,-221.857z"/>
  <g id="svg_2"/>
  <g id="svg_3"/>
  <g id="svg_4"/>
  <g id="svg_5"/>
  <g id="svg_6"/>
  <g id="svg_7"/>
  <g id="svg_8"/>
  <g id="svg_9"/>
  <g id="svg_10"/>
  <g id="svg_11"/>
  <g id="svg_12"/>
  <g id="svg_13"/>
  <g id="svg_14"/>
  <g id="svg_15"/>
  <g id="svg_16"/>
 </g>
</svg>